<?xml version="1.0" encoding="UTF-8" standalone="no"?>
<svg
   viewBox="0 0 46.545048 46.888866"
   version="1.1"
   id="svg6301"
   sodipodi:docname="favicon.svg"
   width="46.545048"
   height="46.888866"
   inkscape:version="1.2 (dc2aedaf03, 2022-05-15)"
   xmlns:inkscape="http://www.inkscape.org/namespaces/inkscape"
   xmlns:sodipodi="http://sodipodi.sourceforge.net/DTD/sodipodi-0.dtd"
   xmlns="http://www.w3.org/2000/svg"
   xmlns:svg="http://www.w3.org/2000/svg">
  <defs
     id="defs6305" />
  <sodipodi:namedview
     id="namedview6303"
     pagecolor="#ffffff"
     bordercolor="#666666"
     borderopacity="1.0"
     inkscape:showpageshadow="2"
     inkscape:pageopacity="0.0"
     inkscape:pagecheckerboard="0"
     inkscape:deskcolor="#d1d1d1"
     showgrid="false"
     inkscape:zoom="8.2265625"
     inkscape:cx="-10.453941"
     inkscape:cy="34.643875"
     inkscape:window-width="2560"
     inkscape:window-height="1377"
     inkscape:window-x="-8"
     inkscape:window-y="-8"
     inkscape:window-maximized="1"
     inkscape:current-layer="svg6301" />
  <!-- Head -->
  <ellipse
     cx="23.272524"
     cy="23.444433"
     fill="#8d6e63"
     id="circle6285"
     rx="23.272524"
     ry="23.444433"
     style="stroke-width:0.834226" />
  <!-- Face patch -->
  <ellipse
     cx="23.272524"
     cy="27.444433"
     rx="18"
     ry="16"
     fill="#d7ccc8"
     id="ellipse6287" />
  <!-- Eye patches -->
  <path
     id="ellipse6289"
     style="fill:#5d4037;stroke-width:1.35092"
     d="m 21.878435,20.634422 c 0.165891,6.609659 -5.089305,5.215626 -9.40027,5.215626 -4.3109658,0 -7.2056411,6.070939 -7.2056411,1.594385 C 5.7144815,15.217438 21.712544,14.024764 21.878435,20.634422 Z"
     sodipodi:nodetypes="zzcz" />
  <!-- Eyes -->
  <circle
     cx="17.483816"
     cy="21.372864"
     r="3.036123"
     fill="#000000"
     id="circle6293"
     style="stroke-width:1.51806" />
  <path
     id="ellipse6289-3"
     style="fill:#5d4037;stroke-width:1.35092"
     d="m 24.701809,20.634422 c -0.165891,6.609659 5.089304,5.215626 9.400269,5.215626 4.310966,0 7.205641,6.070939 7.205641,1.594385 C 40.865762,15.217438 24.8677,14.024764 24.701809,20.634422 Z"
     sodipodi:nodetypes="zzcz" />
  <circle
     cx="-29.096428"
     cy="21.372864"
     r="3.036123"
     fill="#000000"
     id="circle6293-7"
     style="stroke-width:1.51806"
     transform="scale(-1,1)" />
  <!-- Nose -->
  <ellipse
     cx="23.272524"
     cy="29.444433"
     rx="3"
     ry="2"
     fill="#3e2723"
     id="ellipse6297" />
  <!-- Mouth -->
  <path
     d="m 19.272524,33.444433 q 4,3 8,0"
     stroke="#3e2723"
     stroke-width="2"
     fill="none"
     id="path6299"
     style="stroke-linecap:round" />
</svg>
