<?xml version="1.0" encoding="UTF-8" standalone="no"?>
<!-- Created with Inkscape (http://www.inkscape.org/) -->

<svg
   width="7.5712214mm"
   height="6.5417218mm"
   viewBox="0 0 7.5712213 6.5417218"
   version="1.1"
   id="svg152"
   inkscape:version="1.2 (dc2aedaf03, 2022-05-15)"
   sodipodi:docname="hat.svg"
   xmlns:inkscape="http://www.inkscape.org/namespaces/inkscape"
   xmlns:sodipodi="http://sodipodi.sourceforge.net/DTD/sodipodi-0.dtd"
   xmlns="http://www.w3.org/2000/svg"
   xmlns:svg="http://www.w3.org/2000/svg">
  <sodipodi:namedview
     id="namedview154"
     pagecolor="#ffffff"
     bordercolor="#666666"
     borderopacity="1.0"
     inkscape:showpageshadow="2"
     inkscape:pageopacity="0.0"
     inkscape:pagecheckerboard="0"
     inkscape:deskcolor="#d1d1d1"
     inkscape:document-units="mm"
     showgrid="false"
     inkscape:zoom="14.638496"
     inkscape:cx="9.8712326"
     inkscape:cy="3.4156514"
     inkscape:window-width="3840"
     inkscape:window-height="2066"
     inkscape:window-x="-11"
     inkscape:window-y="-11"
     inkscape:window-maximized="1"
     inkscape:current-layer="layer1" />
  <defs
     id="defs149" />
  <g
     inkscape:label="Layer 1"
     inkscape:groupmode="layer"
     id="layer1"
     transform="translate(-221.49482,-143.3782)">
    <path
       id="rect584"
       style="fill:#000000;stroke:none;stroke-width:0.273295;stroke-miterlimit:1.5;paint-order:stroke markers fill;stop-color:#000000"
       d="M 222.96243 146.47155 L 222.96243 148.54688 A 2.2541473 1.3731095 0 0 0 225.21656 149.91992 A 2.2541473 1.3731095 0 0 0 227.47068 148.54688 L 227.47068 146.53925 L 225.92246 147.35315 C 225.57266 147.537 224.98965 147.53701 224.63985 147.35315 L 222.96243 146.47155 z " />
    <path
       style="color:#000000;fill:#000000;stroke-width:0.7;stroke-miterlimit:1.5;paint-order:stroke markers fill"
       d="m 225.58113,143.56215 3.13494,1.64773 c 0.16659,0.0876 0.16659,0.22854 0,0.3161 l -3.13494,1.64773 c -0.16659,0.0876 -0.43481,0.0876 -0.6014,0 l -3.13494,-1.64773 c -0.16659,-0.0876 -0.16659,-0.22854 0,-0.3161 l 3.13493,-1.64773 c 0.16659,-0.0876 0.43482,-0.0876 0.60141,0 z"
       id="path1103" />
    <path
       style="color:#000000;fill:#000000;stroke-width:1.12395;-inkscape-stroke:none"
       d="m 222.22225,145.22406 c 0,0 -0.32566,0.82303 -0.32566,1.40081 0,0.57779 0.0997,1.64733 0.0997,1.64733 l 0.64404,-0.27462 c 0,0 -0.54404,-0.852 -0.54404,-1.3727 0,-0.5207 0.31615,-1.34608 0.31615,-1.34608 z"
       id="path1251"
       sodipodi:nodetypes="csccscc" />
    <ellipse
       style="fill:#000000;stroke:none;stroke-width:0.185452;stroke-miterlimit:1.5;stroke-dasharray:none;stroke-opacity:1;paint-order:stroke markers fill;stop-color:#000000"
       id="path2853"
       cx="222.04729"
       cy="147.00826"
       rx="0.48303154"
       ry="0.411933" />
  </g>
</svg>
